<svg id="Layer_2" data-name="Layer 2" xmlns="http://www.w3.org/2000/svg" viewBox="80 430 870 140"><defs><style>.cls-1{fill:#fff520;}.cls-2{fill:#ffeb20;}.cls-3{fill:#ffdc20;}.cls-4{fill:#ffd220;}.cls-5{fill:#ffbe20;}.cls-6{fill:#ffffc1;}.cls-7{fill:#ffcd20;}</style></defs><title>TextLogo TransparetBG</title><path class="cls-1" d="M150.09,510.76c1.06-4.07,6.43-29.45-14.54-59.9a.41.41,0,0,1,.58-.56c23.67,17.79,25.45,37.55,25.86,59.31a.4.4,0,0,1-.36.41l-11.1,1.24A.41.41,0,0,1,150.09,510.76Z"/><path class="cls-1" d="M150,511.18c1.56-6.7,13.23-53.75,36.91-65.44a.41.41,0,0,1,.47.65c-10.13,10.65-12.72,17.47-27.11,60.71a.4.4,0,0,1-.22.24l-9.49,4.3A.41.41,0,0,1,150,511.18Z"/><path class="cls-2" d="M149.93,509.58c.13-8.53-2.47-37.72-42.15-53.17a.4.4,0,0,1,.17-.78,57.54,57.54,0,0,1,49.28,37.85.39.39,0,0,1,0,.28l-6.51,16A.4.4,0,0,1,149.93,509.58Z"/><path class="cls-2" d="M150,511.19c1.25-5.56,10.27-38.87,48.39-43.2a.4.4,0,0,1,.21.77c-14.21,6.17-26,6.91-38.31,38.36a.45.45,0,0,1-.21.22l-9.51,4.3A.41.41,0,0,1,150,511.19Z"/><path class="cls-3" d="M149.83,510.73c-.17-4.64-3.52-20.88-41.6-24.76a.4.4,0,0,1,0-.8,63.37,63.37,0,0,1,18.26-.16,65.36,65.36,0,0,1,32.61,14.58q-4.26,5.69-8.51,11.36A.4.4,0,0,1,149.83,510.73Z"/><path class="cls-3" d="M150.39,510.9c3.18-5.5,19.18-30,48.72-25a.41.41,0,0,1,0,.8c-13.77,2.42-20.12,1.53-38.85,20.54a.57.57,0,0,1-.13.08l-9.21,4.17A.41.41,0,0,1,150.39,510.9Z"/><path class="cls-4" d="M150.36,511.29c2.64-3.1,14.62-15.59,33.55-12.37a.41.41,0,0,1,0,.81c-7.56.64-22.47,4.15-28.74,12a.39.39,0,0,1-.31.15l-4.15.08A.41.41,0,0,1,150.36,511.29Z"/><path class="cls-5" d="M159.64,511.75c1.41-.86,19.1-11.1,39.79,1.68a.41.41,0,0,0,.48-.65c-15.09-13-29.47-14.28-50.11-.81l9.64-.17A.46.46,0,0,0,159.64,511.75Z"/><path class="cls-4" d="M149.8,512s-2.24-12.31-32.32-13.38h0a64.53,64.53,0,0,1,16.46-1.26,65.72,65.72,0,0,1,25.18,6.52Z"/><path class="cls-5" d="M149.8,512s-24.75-13-55,4.89c-.2.12-.31.16-.32.14S108.9,506.17,123,503.13c6.67-1.45,18-2.17,33.32,5Z"/><path class="cls-6" d="M240.37,551.11l-.21,0h0a1.19,1.19,0,0,1-.85-.21l-.51-.36c-.88-.62-1.77-1.23-2.68-1.81q-2.13-1.28-4.36-2.49a123.65,123.65,0,0,0-11.33-5.43c-17.3-7.25-38-11.67-60.27-12.19-1.44,0-2.9,0-4.36,0-1.69,0-3.35,0-5,.06-2,.05-4,.14-5.94.26a1.94,1.94,0,0,0-.34,0q-4.05.24-8,.65l-.37,0a1.6,1.6,0,0,0-.23,0c-2.22.23-4.4.51-6.57.82-3.87.57-7.67,1.25-11.37,2h-.06c-3.41.73-6.75,1.56-10,2.48a137.48,137.48,0,0,0-27.71,11q-4,2.16-7.7,4.54l-.53.35a1.4,1.4,0,0,1-.88.19h-.33l-.12,0a.5.5,0,0,1-.13,0c-.49-.14-.83-.55-.48-1,13-14.75,34.19-25.84,59.41-30.43,1.66-.3,3.33-.57,5-.82l.37,0,2.36-.32c1.5-.19,3-.35,4.52-.49,2.15-.21,4.34-.36,6.54-.46.92,0,1.85-.09,2.78-.12h.85c1.2,0,2.39-.05,3.6-.05h2.36A147.85,147.85,0,0,1,175,518.68c26.31,3.52,48.84,14,63.15,28.51l0,0c.94.94,1.84,1.92,2.7,2.9C241.26,550.55,240.89,551,240.37,551.11Z"/><path class="cls-5" d="M231.36,541.1A124.87,124.87,0,0,0,220,535.68c-17.3-7.26-38-11.68-60.27-12.19-1.45,0-2.9,0-4.36,0-1.69,0-3.35,0-5,.06q-3,.09-5.93.26l-.34,0c-2.7.16-5.38.38-8,.65l-.37.05-.23,0c-2.22.23-4.41.52-6.58.83q-5.81.84-11.37,2h0q-5.13,1.1-10,2.48a137.38,137.38,0,0,0-27.71,11c12.78-10.12,30-17.63,49.63-21.21,1.67-.3,3.34-.57,5-.82l.37,0,2.35-.32c1.5-.19,3-.35,4.53-.49,2.15-.21,4.34-.36,6.54-.46l2.77-.12h.86c1.2,0,2.39,0,3.6,0h2.35a147.86,147.86,0,0,1,17.2,1.27C197.46,521.68,217.18,529.78,231.36,541.1Z"/><path class="cls-7" d="M294.9,531.15a29.54,29.54,0,0,1-9.74-4.57l4.3-9.54a29.22,29.22,0,0,0,8.37,4.14,31.46,31.46,0,0,0,9.69,1.56q5.4,0,8-1.6a4.84,4.84,0,0,0,2.58-4.26,4.06,4.06,0,0,0-1.53-3.24,11.66,11.66,0,0,0-3.91-2.08q-2.38-.78-6.45-1.71a89,89,0,0,1-10.24-3,16.67,16.67,0,0,1-6.84-4.76,12.9,12.9,0,0,1-2.85-8.76,15.23,15.23,0,0,1,2.58-8.64,17.4,17.4,0,0,1,7.78-6.14,31.74,31.74,0,0,1,12.7-2.26,41.74,41.74,0,0,1,10.24,1.25,30.19,30.19,0,0,1,8.76,3.59l-3.91,9.62a30.49,30.49,0,0,0-15.17-4.3q-5.31,0-7.85,1.72a5.25,5.25,0,0,0-2.55,4.53,4.44,4.44,0,0,0,2.94,4.19,45.57,45.57,0,0,0,9,2.69,89.23,89.23,0,0,1,10.24,3,16.92,16.92,0,0,1,6.84,4.7c1.9,2.13,2.85,5,2.85,8.67A14.91,14.91,0,0,1,328,524.5a17.55,17.55,0,0,1-7.85,6.14,32.06,32.06,0,0,1-12.75,2.27A44.85,44.85,0,0,1,294.9,531.15Z"/><path class="cls-7" d="M375.65,479.67a18.74,18.74,0,0,1,8.25,6.88,20.65,20.65,0,0,1,0,21.07,18.48,18.48,0,0,1-8.25,6.88A30.79,30.79,0,0,1,363,516.88H352V532H339.34V477.24H363A30.29,30.29,0,0,1,375.65,479.67ZM371,504.1a8.57,8.57,0,0,0,3-7,8.66,8.66,0,0,0-3-7.07c-2-1.64-4.87-2.47-8.68-2.47H352v19h10.31Q368,506.56,371,504.1Z"/><path class="cls-7" d="M429.09,520.24H403.68L398.83,532h-13l24.39-54.73h12.51L447.23,532H433.94Zm-4-9.61-8.68-21-8.67,21Z"/><path class="cls-7" d="M487.8,532l-10.55-15.25H465.6V532H452.93V477.24h23.69a30.34,30.34,0,0,1,12.63,2.43,18.66,18.66,0,0,1,8.24,6.88,18.94,18.94,0,0,1,2.9,10.55,17.81,17.81,0,0,1-11.26,17.28L501.4,532ZM484.59,490c-2-1.64-4.87-2.47-8.67-2.47H465.6v19.08h10.32q5.7,0,8.67-2.5a9.84,9.84,0,0,0,0-14.11Z"/><path class="cls-7" d="M530.33,510.47,523,518.13V532H510.39V477.24H523v25.57l24.23-25.57h14.08l-22.67,24.4,24,30.33H547.84Z"/><path class="cls-7" d="M610.62,521.81V532H568.24V477.24H609.6v10.17H580.83v11.88h25.41v9.85H580.83v12.67Z"/><path class="cls-7" d="M620.7,477.24h24.86a34.9,34.9,0,0,1,15.75,3.41A25.49,25.49,0,0,1,672,490.22,29.19,29.19,0,0,1,672,519a25.51,25.51,0,0,1-10.64,9.58,34.89,34.89,0,0,1-15.75,3.4H620.7Zm24.24,44.33q8.2,0,13.09-4.57t4.89-12.39c0-5.21-1.63-9.35-4.89-12.39s-7.62-4.58-13.09-4.58H633.37v33.93Z"/><path class="cls-6" d="M757.59,477.24V532H744.92V509.53H720.06V532H707.4V477.24h12.66v21.58h24.86V477.24Z"/><path class="cls-6" d="M781.71,529.23A27.27,27.27,0,0,1,771,519.11a29.1,29.1,0,0,1,0-29A27.29,27.29,0,0,1,781.71,480a33.89,33.89,0,0,1,30.68,0,27.91,27.91,0,0,1,0,49.25,33.81,33.81,0,0,1-30.68,0Zm24.12-9.34a16,16,0,0,0,6.13-6.21,19.56,19.56,0,0,0,0-18.14,16,16,0,0,0-6.13-6.22,18.39,18.39,0,0,0-17.52,0,16,16,0,0,0-6.13,6.22,19.56,19.56,0,0,0,0,18.14,16,16,0,0,0,6.13,6.21,18.32,18.32,0,0,0,17.52,0Z"/><path class="cls-6" d="M842,531.15a29.48,29.48,0,0,1-9.73-4.57l4.3-9.54a29,29,0,0,0,8.36,4.14,31.52,31.52,0,0,0,9.7,1.56q5.39,0,8-1.6a4.84,4.84,0,0,0,2.58-4.26,4.08,4.08,0,0,0-1.52-3.24,11.76,11.76,0,0,0-3.91-2.08q-2.38-.78-6.45-1.71a89,89,0,0,1-10.24-3,16.67,16.67,0,0,1-6.84-4.76,12.85,12.85,0,0,1-2.86-8.76,15.23,15.23,0,0,1,2.58-8.64,17.45,17.45,0,0,1,7.78-6.14,31.8,31.8,0,0,1,12.71-2.26,41.8,41.8,0,0,1,10.24,1.25,30.25,30.25,0,0,1,8.75,3.59l-3.91,9.62a30.46,30.46,0,0,0-15.16-4.3q-5.33,0-7.86,1.72a5.26,5.26,0,0,0-2.54,4.53,4.44,4.44,0,0,0,2.93,4.19,46,46,0,0,0,8.95,2.69,88.63,88.63,0,0,1,10.24,3,16.92,16.92,0,0,1,6.84,4.7c1.91,2.13,2.86,5,2.86,8.67a14.91,14.91,0,0,1-2.62,8.56,17.63,17.63,0,0,1-7.86,6.14,32,32,0,0,1-12.74,2.27A44.87,44.87,0,0,1,842,531.15Z"/><path class="cls-6" d="M897,487.56H879.47V477.24h47.69v10.32H909.65V532H897Z"/></svg>